<svg width="24" height="24" viewBox="0 0 24 24" fill="none" xmlns="http://www.w3.org/2000/svg">
<g clip-path="url(#clip0)">
<path d="M11.625 0.375C5.20312 0.375 0 5.57812 0 12C0 18.4219 5.20312 23.625 11.625 23.625C18.0469 23.625 23.25 18.4219 23.25 12C23.25 5.57812 18.0469 0.375 11.625 0.375ZM14.6109 6.40781C14.9672 5.87344 15.7687 5.85938 16.1437 6.40781C16.725 7.27031 16.8516 8.1375 16.8797 9C16.8563 9.8625 16.725 10.7297 16.1437 11.5922C15.7875 12.1266 14.9859 12.1406 14.6109 11.5922C14.0297 10.7297 13.9031 9.8625 13.875 9C13.8984 8.1375 14.0297 7.27031 14.6109 6.40781ZM7.11094 6.40781C7.46719 5.87344 8.26875 5.85938 8.64375 6.40781C9.225 7.27031 9.35156 8.1375 9.37969 9C9.35625 9.8625 9.225 10.7297 8.64375 11.5922C8.2875 12.1266 7.48594 12.1406 7.11094 11.5922C6.52969 10.7297 6.40312 9.8625 6.375 9C6.39844 8.1375 6.52969 7.27031 7.11094 6.40781ZM11.625 20.25C8.78438 20.25 5.32031 18.4547 4.88437 15.8766C4.79062 15.3234 5.32031 14.8641 5.85469 15.0375C7.27031 15.4922 9.375 15.75 11.625 15.75C13.875 15.75 15.9797 15.4922 17.3953 15.0375C17.9297 14.8641 18.4547 15.3234 18.3656 15.8766C17.9297 18.4547 14.4656 20.25 11.625 20.25Z" fill="#FD0000"/>
</g>
<defs>
<clipPath id="clip0">
<rect width="23.25" height="24" fill="white"/>
</clipPath>
</defs>
</svg>
